<svg width="757" height="365" viewBox="0 0 757 365" fill="none" xmlns="http://www.w3.org/2000/svg">
<path d="M146 118.721H181.5H211.5C230.3 118.721 236.333 102.054 237 93.7209C238.167 77.2208 240.6 40.1208 241 23.7208C241.4 7.32083 226.5 1.88752 219 1.22086C202.667 1.05419 165.2 0.820861 146 1.22086C133.548 1.48027 126.312 6.52032 122.491 11.6223C119.128 16.112 119.111 22.0361 119.354 27.6402C120.167 46.369 121.632 76.6227 123 93.7209C124.6 113.721 139 118.721 146 118.721Z" fill="#08C7E1" stroke="#08C7E1"/>
<path d="M118.721 215L118.721 179.5L118.721 149.5C118.721 130.7 102.054 124.667 93.7209 124C77.2208 122.833 40.1208 120.4 23.7208 120C7.32082 119.6 1.88751 134.5 1.22086 142C1.05419 158.333 0.820859 195.8 1.22086 215C1.48027 227.452 6.52032 234.688 11.6223 238.509C16.112 241.872 22.0361 241.889 27.6402 241.646C46.369 240.833 76.6227 239.368 93.7209 238C113.721 236.4 118.721 222 118.721 215Z" fill="#237FEA" stroke="#237FEA"/>
<path d="M214 246L178.5 246L148.5 246C129.7 246 123.667 262.667 123 271C121.833 287.5 119.4 324.6 119 341C118.6 357.4 133.5 362.833 141 363.5C157.333 363.667 194.8 363.9 214 363.5C226.452 363.241 233.688 358.201 237.509 353.099C240.872 348.609 240.889 342.685 240.646 337.081C239.833 318.352 238.368 288.098 237 271C235.4 251 221 246 214 246Z" fill="#08C7E1" stroke="#08C7E1"/>
<path d="M241 147L241 182.5L241 212.5C241 231.3 257.667 237.333 266 238C282.5 239.167 319.6 241.6 336 242C352.4 242.4 357.833 227.5 358.5 220C358.667 203.667 358.9 166.2 358.5 147C358.241 134.548 353.201 127.312 348.099 123.491C343.609 120.128 337.685 120.111 332.081 120.354C313.352 121.167 283.098 122.632 266 124C246 125.6 241 140 241 147Z" fill="#237FEA" stroke="#237FEA"/>
<path d="M432.058 219V144.1H443.507L476.249 198.777H470.257L502.464 144.1H513.913L514.02 219H500.859L500.752 164.751H503.534L476.142 210.44H469.936L442.116 164.751H445.326V219H432.058ZM559.824 219.749C553.476 219.749 547.912 218.501 543.132 216.004C538.424 213.436 534.751 209.941 532.111 205.518C529.543 201.095 528.259 196.066 528.259 190.431C528.259 184.724 529.508 179.695 532.004 175.344C534.572 170.921 538.068 167.462 542.49 164.965C546.984 162.468 552.085 161.22 557.791 161.22C563.355 161.22 568.313 162.433 572.664 164.858C577.016 167.283 580.44 170.707 582.936 175.13C585.433 179.553 586.681 184.76 586.681 190.752C586.681 191.323 586.646 191.965 586.574 192.678C586.574 193.391 586.539 194.069 586.467 194.711H538.852V185.83H579.405L574.162 188.612C574.234 185.331 573.556 182.442 572.129 179.945C570.703 177.448 568.741 175.487 566.244 174.06C563.819 172.633 561.001 171.92 557.791 171.92C554.51 171.92 551.621 172.633 549.124 174.06C546.699 175.487 544.773 177.484 543.346 180.052C541.991 182.549 541.313 185.509 541.313 188.933V191.073C541.313 194.497 542.098 197.529 543.667 200.168C545.237 202.807 547.448 204.84 550.301 206.267C553.155 207.694 556.436 208.407 560.145 208.407C563.355 208.407 566.244 207.908 568.812 206.909C571.38 205.91 573.663 204.341 575.66 202.201L582.829 210.44C580.261 213.436 577.016 215.754 573.092 217.395C569.24 218.964 564.818 219.749 559.824 219.749ZM623.711 219.749C618.218 219.749 613.261 218.536 608.838 216.111C604.487 213.614 601.063 210.19 598.566 205.839C596.069 201.488 594.821 196.352 594.821 190.431C594.821 184.51 596.069 179.374 598.566 175.023C601.063 170.672 604.487 167.283 608.838 164.858C613.261 162.433 618.218 161.22 623.711 161.22C628.49 161.22 632.77 162.29 636.551 164.43C640.332 166.499 643.328 169.673 645.539 173.953C647.75 178.233 648.856 183.726 648.856 190.431C648.856 197.065 647.786 202.558 645.646 206.909C643.506 211.189 640.546 214.399 636.765 216.539C632.984 218.679 628.633 219.749 623.711 219.749ZM625.316 208.3C628.526 208.3 631.379 207.587 633.876 206.16C636.444 204.733 638.477 202.665 639.975 199.954C641.544 197.243 642.329 194.069 642.329 190.431C642.329 186.722 641.544 183.547 639.975 180.908C638.477 178.197 636.444 176.129 633.876 174.702C631.379 173.275 628.526 172.562 625.316 172.562C622.106 172.562 619.217 173.275 616.649 174.702C614.152 176.129 612.119 178.197 610.55 180.908C609.052 183.547 608.303 186.722 608.303 190.431C608.303 194.069 609.052 197.243 610.55 199.954C612.119 202.665 614.152 204.733 616.649 206.16C619.217 207.587 622.106 208.3 625.316 208.3ZM642.65 219V205.518L643.185 190.324L642.115 175.13V139.606H655.383V219H642.65ZM672.987 219V161.862H686.362V219H672.987ZM679.728 152.446C677.231 152.446 675.163 151.661 673.522 150.092C671.953 148.523 671.168 146.632 671.168 144.421C671.168 142.138 671.953 140.248 673.522 138.75C675.163 137.181 677.231 136.396 679.728 136.396C682.225 136.396 684.258 137.145 685.827 138.643C687.468 140.07 688.288 141.889 688.288 144.1C688.288 146.454 687.503 148.451 685.934 150.092C684.365 151.661 682.296 152.446 679.728 152.446ZM696.106 219L721.251 186.258L721.037 193.427L697.069 161.862H711.942L728.741 184.332H723.07L739.976 161.862H754.421L730.239 193.427L730.346 186.258L755.384 219H740.297L722.642 195.139L728.206 195.888L710.872 219H696.106Z" fill="#08C7E1"/>
</svg>
